<svg
   version="1.1"
   width="600"
   height="300"
   viewBox="0 0 600 300"
   id="svg57"
   xmlns="http://www.w3.org/2000/svg"
   xmlns:svg="http://www.w3.org/2000/svg">
  <defs
     id="defs1" />
  <g
     clip-path="none"
     data-paper-data="{&quot;isPaintingLayer&quot;:true}"
     stroke-miterlimit="10"
     stroke-dasharray="none"
     stroke-dashoffset="0"
     style="mix-blend-mode:normal"
     id="g57">
    <path
       fill="red"
       d="M 0,300.0003 V 3.0410304e-4 H 600.00001 V 300.0003 Z"
       style="mix-blend-mode:normal;fill:#ff8e4c;fill-opacity:1;fill-rule:nonzero;stroke:none;stroke-width:3.39412;stroke-linecap:butt;stroke-linejoin:miter;stroke-miterlimit:10;stroke-dasharray:none;stroke-dashoffset:0"
       id="path1-8" />
    <g
       stroke="#ffb878"
       fill="none"
       stroke-linecap="round"
       id="g18"
       transform="matrix(1.196528,0,0,1.196528,-178.61064,-328.61099)"
       style="mix-blend-mode:normal;stroke-width:0.835751">
      <circle
         r="243"
         cx="400"
         cy="400"
         stroke-width="10.029"
         stroke-dasharray="1283, 1527"
         id="circle1" />
      <circle
         r="229.5"
         cx="400"
         cy="400"
         stroke-width="10.029"
         stroke-dasharray="1140, 1442"
         transform="rotate(-21,400,400)"
         id="circle2" />
      <circle
         r="216"
         cx="400"
         cy="400"
         stroke-width="10.029"
         stroke-dasharray="1006, 1357"
         transform="rotate(-42,400,400)"
         id="circle3" />
      <circle
         r="202.5"
         cx="400"
         cy="400"
         stroke-width="10.029"
         stroke-dasharray="880, 1272"
         transform="rotate(-64,400,400)"
         id="circle4" />
      <circle
         r="189"
         cx="400"
         cy="400"
         stroke-width="10.029"
         stroke-dasharray="763, 1188"
         transform="rotate(-85,400,400)"
         id="circle5" />
      <circle
         r="175.5"
         cx="400"
         cy="400"
         stroke-width="10.029"
         stroke-dasharray="654, 1103"
         transform="rotate(-106,400,400)"
         id="circle6" />
      <circle
         r="162"
         cx="400"
         cy="400"
         stroke-width="10.029"
         stroke-dasharray="553, 1018"
         transform="rotate(-127,400,400)"
         id="circle7" />
      <circle
         r="148.5"
         cx="400"
         cy="400"
         stroke-width="10.029"
         stroke-dasharray="461, 933"
         transform="rotate(-148,400,400)"
         id="circle8" />
      <circle
         r="135"
         cx="400"
         cy="400"
         stroke-width="10.029"
         stroke-dasharray="377, 848"
         transform="rotate(-169,400,400)"
         id="circle9" />
      <circle
         r="121.5"
         cx="400"
         cy="400"
         stroke-width="10.029"
         stroke-dasharray="302, 763"
         transform="rotate(169,400,400)"
         id="circle10" />
      <circle
         r="108"
         cx="400"
         cy="400"
         stroke-width="10.029"
         stroke-dasharray="235, 679"
         transform="rotate(148,400,400)"
         id="circle11" />
      <circle
         r="94.5"
         cx="400"
         cy="400"
         stroke-width="10.029"
         stroke-dasharray="176, 594"
         transform="rotate(127,400,400)"
         id="circle12" />
      <circle
         r="81"
         cx="400"
         cy="400"
         stroke-width="10.029"
         stroke-dasharray="126, 509"
         transform="rotate(106,400,400)"
         id="circle13" />
      <circle
         r="67.5"
         cx="400"
         cy="400"
         stroke-width="10.029"
         stroke-dasharray="84, 424"
         transform="rotate(85,400,400)"
         id="circle14" />
      <circle
         r="54"
         cx="400"
         cy="400"
         stroke-width="10.029"
         stroke-dasharray="50, 339"
         transform="rotate(64,400,400)"
         id="circle15" />
      <circle
         r="40.5"
         cx="400"
         cy="400"
         stroke-width="10.029"
         stroke-dasharray="25, 254"
         transform="rotate(42,400,400)"
         id="circle16" />
      <circle
         r="27"
         cx="400"
         cy="400"
         stroke-width="10.029"
         stroke-dasharray="8, 170"
         transform="rotate(21,400,400)"
         id="circle17" />
      <circle
         r="13.5"
         cx="400"
         cy="400"
         stroke-width="10.029"
         stroke-dasharray="0, 85"
         id="circle18" />
    </g>
    <g
       fill-rule="evenodd"
       id="g41"
       transform="translate(0,-16.64806)">
      <path
         d="m 170.04322,59.64806 h 259.91582 c 2.39722,0 4.69624,0.95229 6.39133,2.64738 1.69509,1.69509 2.64742,3.99413 2.64742,6.39134 v 252.66321 c 0,0.001 -277.99559,0.49897 -277.99559,0.4977 l 0.002,-253.16091 c 0,-4.99194 4.04677,-9.03872 9.03873,-9.03872 z"
         fill="#ffffff"
         stroke-opacity="0.12941"
         stroke="#000000"
         stroke-width="14"
         stroke-linecap="square"
         stroke-linejoin="miter"
         id="path5" />
      <g
         id="g40">
        <path
           d="M 161.0045,79.10787 H 438.9978 V 322.35198 H 161.00451 Z"
           fill="#e6f0ff"
           stroke="none"
           stroke-width="1"
           stroke-linecap="square"
           stroke-linejoin="miter"
           id="path6" />
        <path
           d="M 161.0045,79.10787 H 438.9978 V 322.35198 H 161.00451 Z"
           fill="none"
           stroke="#d9d9d9"
           stroke-width="3"
           stroke-linecap="butt"
           stroke-linejoin="round"
           id="path7" />
        <path
           d="m 170.04322,59.64805 h 259.91582 c 2.39722,0 4.69624,0.95229 6.39133,2.64738 1.69509,1.69509 2.64742,3.99413 2.64742,6.39134 v 45.16321 c 0,0.001 -0.001,0.002 -0.002,0.002 l -277.99096,-0.002 v 0 c -0.001,0 -0.002,-0.001 -0.002,-0.002 l 0.002,-45.16091 v 0 c 0,-4.99194 4.04677,-9.03872 9.03873,-9.03872 z"
           fill="#ffffff"
           stroke="none"
           stroke-width="1"
           stroke-linecap="square"
           stroke-linejoin="miter"
           id="path8" />
        <path
           d="m 170.04322,59.64805 h 259.91582 c 2.39722,0 4.69624,0.95229 6.39133,2.64738 1.69509,1.69509 2.64742,3.99413 2.64742,6.39134 v 45.16321 c 0,0.001 -0.001,0.002 -0.002,0.002 l -277.99096,-0.002 v 0 c -0.001,0 -0.002,-0.001 -0.002,-0.002 l 0.002,-45.16091 v 0 c 0,-4.99194 4.04677,-9.03872 9.03873,-9.03872 z"
           fill="none"
           stroke="#d9d9d9"
           stroke-width="3"
           stroke-linecap="butt"
           stroke-linejoin="round"
           id="path9" />
        <path
           d="m 208.95778,128.56811 v 0 c 0,-5.05527 4.09812,-9.1534 9.1534,-9.1534 h 206.18079 c 2.42764,0 4.75586,0.96437 6.47246,2.68097 1.71655,1.71659 2.68093,4.0448 2.68093,6.47243 v 36.61251 c 0,5.05527 -4.09809,9.15339 -9.15339,9.15339 H 218.11119 c -5.05528,0 -9.1534,-4.09812 -9.1534,-9.15339 z"
           fill="#fc662c"
           stroke="none"
           stroke-width="1"
           stroke-linecap="square"
           stroke-linejoin="miter"
           id="path10" />
        <path
           d="m 208.95778,128.56811 v 0 c 0,-5.05527 4.09812,-9.1534 9.1534,-9.1534 h 206.18079 c 2.42764,0 4.75586,0.96437 6.47246,2.68097 1.71655,1.71659 2.68093,4.0448 2.68093,6.47243 v 36.61251 c 0,5.05527 -4.09809,9.15339 -9.15339,9.15339 H 218.11119 c -5.05528,0 -9.1534,-4.09812 -9.1534,-9.15339 z"
           fill="none"
           stroke="#d65725"
           stroke-width="3"
           stroke-linecap="butt"
           stroke-linejoin="round"
           id="path11" />
        <path
           d="m 208.95778,189.05212 v 0 c 0,-5.05528 4.09812,-9.15341 9.1534,-9.15341 h 206.18079 c 2.42764,0 4.75586,0.96438 6.47246,2.68098 1.71655,1.7166 2.68093,4.04479 2.68093,6.47244 v 36.61248 c 0,5.05528 -4.09809,9.15339 -9.15339,9.15339 H 218.11119 c -5.05528,0 -9.1534,-4.0981 -9.1534,-9.15339 z"
           fill="#fc662c"
           stroke="none"
           stroke-width="1"
           stroke-linecap="square"
           stroke-linejoin="miter"
           id="path12" />
        <path
           d="m 208.95778,189.05212 v 0 c 0,-5.05528 4.09812,-9.15341 9.1534,-9.15341 h 206.18079 c 2.42764,0 4.75586,0.96438 6.47246,2.68098 1.71655,1.7166 2.68093,4.04479 2.68093,6.47244 v 36.61248 c 0,5.05528 -4.09809,9.15339 -9.15339,9.15339 H 218.11119 c -5.05528,0 -9.1534,-4.0981 -9.1534,-9.15339 z"
           fill="none"
           stroke="#d65725"
           stroke-width="3"
           stroke-linecap="butt"
           stroke-linejoin="round"
           id="path13" />
        <path
           d="m 264.74158,81.78788 c 1.12871,0 2.06135,0.21841 2.79787,0.65524 0.73655,0.43363 1.28177,1.05699 1.63568,1.87005 0.57391,-0.81307 1.25307,-1.43641 2.03743,-1.87005 0.78436,-0.43682 1.64047,-0.65524 2.56832,-0.65524 1.83656,0 3.21875,0.4687 4.14659,1.40613 0.92784,0.93742 1.39175,2.23354 1.39175,3.88837 v 10.30205 h -4.1753 V 88.6033 c 0,-1.38699 -0.20406,-2.32123 -0.61219,-2.8027 -0.40493,-0.48465 -1.05217,-0.72697 -1.94177,-0.72697 -0.9374,0 -1.63886,0.31566 -2.10439,0.94698 -0.46231,0.63132 -0.69349,1.5544 -0.69349,2.76922 v 8.5946 h -4.1753 v -9.35506 c 0,-1.00438 -0.1913,-1.7473 -0.57391,-2.22876 -0.38261,-0.48465 -1.02828,-0.72697 -1.93699,-0.72697 -0.79393,0 -1.46349,0.30609 -2.00872,0.9183 -0.54523,0.61219 -0.81784,1.4396 -0.81784,2.48224 v 8.91026 h -4.1753 V 82.18963 h 3.93137 v 2.06615 h 0.0574 c 0.59305,-0.83221 1.27857,-1.45077 2.05656,-1.85571 0.78117,-0.40812 1.64523,-0.61219 2.59221,-0.61219 z"
           fill="#575e75"
           stroke="none"
           stroke-width="1"
           stroke-linecap="square"
           stroke-linejoin="miter"
           id="path14" />
        <path
           d="m 285.30237,82.18962 3.44355,10.40248 h 0.0574 l 3.31438,-10.40248 h 4.31878 l -6.45663,17.39009 c -0.38261,1.01395 -0.97088,1.79353 -1.7648,2.33877 -0.79394,0.54523 -1.82223,0.81784 -3.08485,0.81784 -0.60261,0 -1.11278,-0.0143 -1.53047,-0.0431 -0.4145,-0.0287 -0.84176,-0.0669 -1.28177,-0.11478 v -3.42923 c 0.50697,0.05739 0.92307,0.09565 1.24829,0.11478 0.32522,0.01913 0.6361,0.02869 0.93264,0.02869 0.59305,0 1.05218,-0.18174 1.3774,-0.54522 0.32522,-0.36349 0.48784,-0.81786 0.48784,-1.36309 0,-0.14347 -0.01,-0.28377 -0.0287,-0.42087 -0.0191,-0.1403 -0.0718,-0.31566 -0.15784,-0.5261 l -5.35183,-14.24782 z"
           fill="#575e75"
           stroke="none"
           stroke-width="1"
           stroke-linecap="square"
           stroke-linejoin="miter"
           id="path15" />
        <path
           d="M 310.31107,76.40726 V 97.38442 H 306.1358 V 76.40726 Z"
           fill="#575e75"
           stroke="none"
           stroke-width="1"
           stroke-linecap="square"
           stroke-linejoin="miter"
           id="path16" />
        <path
           d="m 317.88687,76.40726 v 3.42924 h -4.17527 v -3.42924 z m 0,5.78237 V 97.38444 H 313.7116 V 82.18963 Z"
           fill="#575e75"
           stroke="none"
           stroke-width="1"
           stroke-linecap="square"
           stroke-linejoin="miter"
           id="path17" />
        <path
           d="m 327.39967,81.78788 c 2.06613,0 3.66036,0.40972 4.78268,1.22917 1.12555,0.81626 1.76484,2.01832 1.91788,3.6062 h -3.9744 c -0.0574,-0.71741 -0.32525,-1.23873 -0.80349,-1.56395 -0.47828,-0.32523 -1.16222,-0.48785 -2.05178,-0.48785 -0.80349,0 -1.39016,0.11957 -1.76006,0.3587 -0.36667,0.23914 -0.55,0.58828 -0.55,1.04743 0,0.4687 0.24075,0.85451 0.72222,1.15742 0.48462,0.29972 1.45869,0.58828 2.9222,0.86568 2.33398,0.44958 3.8995,1.0283 4.69662,1.73614 0.80031,0.70785 1.20046,1.6357 1.20046,2.78355 0,1.7218 -0.62973,3.03227 -1.88918,3.93143 -1.25623,0.89916 -2.93655,1.34873 -5.04095,1.34873 -2.10437,0 -3.80064,-0.4464 -5.08879,-1.33917 -1.28493,-0.89597 -1.97046,-2.23354 -2.05656,-4.01272 h 3.97445 c 0,0.8035 0.30288,1.43004 0.90869,1.87962 0.609,0.44957 1.37267,0.67437 2.29093,0.67437 0.81306,0 1.47308,-0.17378 1.98003,-0.52132 0.50699,-0.35075 0.76048,-0.82263 0.76048,-1.4157 0,-0.5261 -0.33003,-0.95654 -0.99006,-1.29134 -0.65998,-0.3348 -1.87,-0.68393 -3.63007,-1.04742 -1.74088,-0.34436 -2.99874,-0.83698 -3.77353,-1.47787 -0.77479,-0.6409 -1.16219,-1.50657 -1.16219,-2.59704 0,-1.607 0.56913,-2.81863 1.7074,-3.63489 1.13831,-0.81945 2.77399,-1.22917 4.90705,-1.22917 z"
           fill="#575e75"
           stroke="none"
           stroke-width="1"
           stroke-linecap="square"
           stroke-linejoin="miter"
           id="path18" />
        <path
           d="m 342.23559,77.64123 v 4.54839 h 3.05614 v 2.79791 h -3.05614 v 7.61893 c 0,0.62175 0.11636,1.05539 0.34913,1.30091 0.23595,0.24232 0.70786,0.36349 1.41568,0.36349 0.23914,0 0.46872,-0.0096 0.68873,-0.02871 0.22,-0.01912 0.42087,-0.04783 0.60261,-0.08609 v 3.25705 c -0.34438,0.05739 -0.73018,0.09566 -1.15744,0.11478 -0.42407,0.01913 -0.84172,0.02871 -1.25304,0.02871 -1.80785,0 -3.06411,-0.3077 -3.76878,-0.92307 -0.70145,-0.61858 -1.0522,-1.48266 -1.0522,-2.59226 v -9.05375 h -2.52524 v -2.7979 h 2.52524 v -4.54839 z"
           fill="#575e75"
           stroke="none"
           stroke-width="1"
           stroke-linecap="square"
           stroke-linejoin="miter"
           id="path19" />
        <path
           d="m 188.18207,136.58973 v 20.5754 h -4.17527 v -13.34388 h -5.16531 v -3.14228 h 0.27261 c 1.68349,0 3.0099,-0.34594 3.97921,-1.03786 0.97247,-0.69509 1.55915,-1.71223 1.76001,-3.0514 z"
           fill="#575e75"
           stroke="none"
           stroke-width="1"
           stroke-linecap="square"
           stroke-linejoin="miter"
           id="path20" />
        <path
           d="m 183.89692,196.86805 c 2.00872,0 3.68426,0.60102 5.0266,1.80309 1.34553,1.19888 2.01829,2.74054 2.01829,4.62493 0,1.32004 -0.31565,2.50937 -0.94697,3.56794 -0.6313,1.05539 -1.95611,2.22397 -3.9744,3.50576 -1.4061,0.88958 -2.44397,1.62613 -3.11355,2.20962 -0.66957,0.58351 -1.19088,1.14307 -1.56394,1.67874 h 9.72801 v 3.58707 h -15.10854 c 0,-1.35829 0.24074,-2.56036 0.72219,-3.60619 0.48465,-1.04904 1.17813,-1.98645 2.08046,-2.81226 0.90552,-0.82903 2.63049,-2.09007 5.17488,-3.78316 0.97568,-0.6409 1.69309,-1.28337 2.15222,-1.92745 0.45913,-0.64727 0.68871,-1.34396 0.68871,-2.09007 0,-0.92784 -0.28058,-1.6883 -0.84177,-2.28137 -0.55796,-0.59305 -1.30567,-0.88958 -2.24307,-0.88958 -1.03306,0 -1.83019,0.42087 -2.39136,1.26264 -0.55796,0.84177 -0.8513,1.9944 -0.88001,3.45794 h -3.98878 v -0.38742 c 0,-2.3818 0.67598,-4.2965 2.02787,-5.74407 1.3551,-1.45078 3.16614,-2.17616 5.43315,-2.17616 z"
           fill="#575e75"
           stroke="none"
           stroke-width="1"
           stroke-linecap="square"
           stroke-linejoin="miter"
           id="path21" />
        <path
           d="m 208.95778,249.53612 v 0 c 0,-5.05527 4.09812,-9.1534 9.1534,-9.1534 h 206.18079 c 2.42764,0 4.75586,0.96438 6.47246,2.68098 1.71655,1.71658 2.68093,4.04478 2.68093,6.47242 v 36.61251 c 0,5.05527 -4.09809,9.15339 -9.15339,9.15339 H 218.11119 c -5.05528,0 -9.1534,-4.09812 -9.1534,-9.15339 z"
           fill="#fc662c"
           stroke="none"
           stroke-width="1"
           stroke-linecap="square"
           stroke-linejoin="miter"
           id="path22" />
        <path
           d="m 208.95778,249.53612 v 0 c 0,-5.05527 4.09812,-9.1534 9.1534,-9.1534 h 206.18079 c 2.42764,0 4.75586,0.96438 6.47246,2.68098 1.71655,1.71658 2.68093,4.04478 2.68093,6.47242 v 36.61251 c 0,5.05527 -4.09809,9.15339 -9.15339,9.15339 H 218.11119 c -5.05528,0 -9.1534,-4.09812 -9.1534,-9.15339 z"
           fill="none"
           stroke="#d65725"
           stroke-width="3"
           stroke-linecap="butt"
           stroke-linejoin="round"
           id="path23" />
        <path
           d="m 183.479,257.55773 c 1.86523,0 3.48338,0.54045 4.85443,1.62135 1.37422,1.0809 2.06133,2.4392 2.06133,4.07491 0,0.99482 -0.2439,1.87006 -0.73174,2.62574 -0.48785,0.75567 -1.20525,1.28177 -2.15222,1.5783 v 0.0574 c 1.14784,0.26782 2.04221,0.82742 2.68308,1.67874 0.6409,0.85132 0.96133,1.85093 0.96133,2.99878 0,2.00877 -0.73654,3.63808 -2.2096,4.88799 -1.47308,1.24669 -3.28572,1.87004 -5.43794,1.87004 -2.31482,0 -4.16571,-0.65522 -5.55271,-1.9657 -1.38698,-1.31048 -2.08047,-3.07532 -2.08047,-5.29451 v -0.24393 h 3.96008 c 0.0669,1.29134 0.41609,2.29094 1.04739,2.99878 0.63132,0.70786 1.48743,1.06177 2.56832,1.06177 0.9948,0 1.80307,-0.30769 2.42482,-0.92307 0.62175,-0.61856 0.93264,-1.387 0.93264,-2.30529 0,-1.0235 -0.3045,-1.78875 -0.91349,-2.29571 -0.60581,-0.50699 -1.74091,-0.76045 -3.4053,-0.76045 h -0.44477 v -2.94141 l 0.70305,0.0287 c 1.17653,0 2.08205,-0.2248 2.71657,-0.67438 0.63769,-0.44958 0.95655,-1.08568 0.95655,-1.90832 0,-0.82262 -0.27581,-1.48424 -0.82741,-1.98485 -0.54843,-0.50378 -1.24351,-0.75567 -2.08527,-0.75567 -0.93739,0 -1.69626,0.30928 -2.27656,0.92786 -0.57711,0.61537 -0.87523,1.53048 -0.89436,2.74529 h -3.96007 c 0.0765,-2.16181 0.76043,-3.8852 2.05178,-5.17016 1.29133,-1.28815 2.97482,-1.93223 5.05053,-1.93223 z"
           fill="#575e75"
           stroke="none"
           stroke-width="1"
           stroke-linecap="square"
           stroke-linejoin="miter"
           id="path24" />
        <path
           d="m 232.54897,204.3165 c -1.49326,0 -2.65308,0.53712 -3.47942,1.6114 -0.82308,1.07428 -1.23462,2.45549 -1.23462,4.14363 0,1.76486 0.43431,3.16847 1.30293,4.21075 0.86864,1.03911 2.06424,1.55865 3.58679,1.55865 1.47373,0 2.61566,-0.51793 3.42574,-1.55385 0.81008,-1.0359 1.21511,-2.47945 1.21511,-4.33067 0,-1.64018 -0.42782,-2.98942 -1.28343,-4.04769 -0.85237,-1.06149 -2.03007,-1.59222 -3.5331,-1.59222 z m -4.6262,-7.6542 v 7.87 h 0.0586 c 0.40015,-0.78651 1.02642,-1.386 1.87879,-1.79843 0.8556,-0.41246 1.87878,-0.61866 3.0695,-0.61866 2.21549,0 3.95928,0.74815 5.23132,2.24446 1.2753,1.49631 1.91294,3.41944 1.91294,5.76943 0,2.35954 -0.63438,4.2715 -1.90318,5.73583 -1.26879,1.46114 -2.99143,2.19171 -5.16789,2.19171 -0.96622,0 -1.91132,-0.19662 -2.83526,-0.58988 -0.92069,-0.39326 -1.64942,-0.99276 -2.18621,-1.79845 h -0.0586 v 2.02864 h -2.54735 v -21.03463 z"
           fill="#ffffff"
           stroke="none"
           stroke-width="1"
           stroke-linecap="square"
           stroke-linejoin="miter"
           id="path25" />
        <path
           d="m 252.64955,209.82692 c -0.42944,0.29735 -0.98577,0.49877 -1.66895,0.60428 -0.6832,0.1055 -1.59088,0.23501 -2.72303,0.38847 -1.13215,0.16305 -1.9715,0.4652 -2.51807,0.90641 -0.54654,0.44122 -0.81983,1.0647 -0.81983,1.87039 0,0.70979 0.26351,1.26131 0.79055,1.65458 0.52704,0.39326 1.26391,0.58988 2.21063,0.58988 1.43471,0 2.58149,-0.35009 3.44037,-1.05027 0.85888,-0.70019 1.28832,-1.48193 1.28832,-2.34518 v -2.61854 z m -3.25008,-7.71172 c 2.10816,0 3.60306,0.36928 4.4847,1.10784 0.8849,0.73854 1.32734,1.72649 1.32734,2.96382 0,5.28505 0,8.2153 0,8.79082 0,0.5755 0.26839,0.86325 0.80518,0.86325 0.11712,0 0.24401,-0.0144 0.38065,-0.0431 0.13664,-0.0288 0.26839,-0.0623 0.39527,-0.10071 v 1.94231 c -0.23423,0.13429 -0.50588,0.2366 -0.81493,0.30693 -0.30582,0.0735 -0.63929,0.11031 -1.00039,0.11031 -0.70271,0 -1.23953,-0.19344 -1.6104,-0.5803 -0.37088,-0.39007 -0.55631,-0.98314 -0.55631,-1.77926 -0.67343,0.78651 -1.46887,1.37641 -2.3863,1.76967 -0.91744,0.39326 -1.94223,0.58988 -3.07438,0.58988 -1.60063,0 -2.85479,-0.37088 -3.76246,-1.11264 -0.90767,-0.74496 -1.3615,-1.79844 -1.3615,-3.16048 0,-1.3716 0.44407,-2.45706 1.33223,-3.25638 0.88815,-0.8025 2.97677,-1.40519 6.26586,-1.80804 1.11264,-0.14388 1.86577,-0.3549 2.25942,-0.63304 0.39692,-0.27817 0.59537,-0.6954 0.59537,-1.25172 0,-0.84407 -0.27653,-1.47395 -0.8296,-1.88957 -0.54979,-0.41883 -1.42493,-0.62826 -2.62541,-0.62826 -1.25904,0 -2.20413,0.23499 -2.83526,0.70498 -0.62788,0.47 -0.96623,1.19896 -1.01504,2.18691 h -2.54734 c 0.0781,-1.68814 0.6832,-2.95905 1.81533,-3.8127 1.13215,-0.85366 2.71814,-1.28048 4.75797,-1.28048 z"
           fill="#ffffff"
           stroke="none"
           stroke-width="1"
           stroke-linecap="square"
           stroke-linejoin="miter"
           id="path26" />
        <path
           d="m 266.67456,202.1152 c 1.86414,0 3.21752,0.46998 4.06012,1.40997 0.84584,0.93999 1.26879,2.28283 1.26879,4.02853 v 10.14325 h -2.54734 v -10.40222 c 0,-0.86325 -0.28142,-1.57465 -0.84423,-2.13415 -0.55956,-0.56271 -1.33711,-0.84407 -2.33263,-0.84407 -1.43471,0 -2.55548,0.43482 -3.3623,1.30447 -0.80355,0.86646 -1.20534,1.99027 -1.20534,3.37148 v 8.70448 h -2.54734 v -15.23643 h 2.40093 v 2.4171 h 0.0586 c 0.56607,-0.94958 1.26066,-1.64656 2.08374,-2.09099 0.82635,-0.44761 1.81536,-0.6714 2.96704,-0.6714 z"
           fill="#ffffff"
           stroke="none"
           stroke-width="1"
           stroke-linecap="square"
           stroke-linejoin="miter"
           id="path27" />
        <path
           d="m 285.42825,209.82692 c -0.42942,0.29735 -0.98576,0.49877 -1.66894,0.60428 -0.6832,0.1055 -1.59087,0.23501 -2.72302,0.38847 -1.13215,0.16305 -1.97151,0.4652 -2.51805,0.90641 -0.54656,0.44122 -0.81984,1.0647 -0.81984,1.87039 0,0.70979 0.26353,1.26131 0.79055,1.65458 0.52704,0.39326 1.26391,0.58988 2.21062,0.58988 1.43471,0 2.58149,-0.35009 3.44037,-1.05027 0.85889,-0.70019 1.28831,-1.48193 1.28831,-2.34518 v -2.61854 z m -3.25005,-7.71172 c 2.10815,0 3.60304,0.36928 4.48468,1.10784 0.8849,0.73854 1.32734,1.72649 1.32734,2.96382 0,5.28505 0,8.2153 0,8.79082 0,0.5755 0.26842,0.86325 0.80521,0.86325 0.1171,0 0.24401,-0.0144 0.38062,-0.0431 0.13664,-0.0288 0.26842,-0.0623 0.39528,-0.10071 v 1.94231 c -0.23423,0.13429 -0.50589,0.2366 -0.81494,0.30693 -0.30582,0.0735 -0.63929,0.11031 -1.00039,0.11031 -0.70271,0 -1.2395,-0.19344 -1.61038,-0.5803 -0.37088,-0.39007 -0.55632,-0.98314 -0.55632,-1.77926 -0.67345,0.78651 -1.46887,1.37641 -2.38631,1.76967 -0.91744,0.39326 -1.94223,0.58988 -3.07438,0.58988 -1.60063,0 -2.85478,-0.37088 -3.76245,-1.11264 -0.90767,-0.74496 -1.36151,-1.79844 -1.36151,-3.16048 0,-1.3716 0.44408,-2.45706 1.33224,-3.25638 0.88815,-0.8025 2.97677,-1.40519 6.26588,-1.80804 1.11264,-0.14388 1.86576,-0.3549 2.25942,-0.63304 0.3969,-0.27817 0.59534,-0.6954 0.59534,-1.25172 0,-0.84407 -0.27653,-1.47395 -0.82957,-1.88957 -0.54982,-0.41883 -1.42496,-0.62826 -2.62543,-0.62826 -1.25903,0 -2.20413,0.23499 -2.83526,0.70498 -0.62788,0.47 -0.96623,1.19896 -1.01504,2.18691 h -2.54734 c 0.0781,-1.68814 0.6832,-2.95905 1.81535,-3.8127 1.13215,-0.85366 2.71814,-1.28048 4.75797,-1.28048 z"
           fill="#ffffff"
           stroke="none"
           stroke-width="1"
           stroke-linecap="square"
           stroke-linejoin="miter"
           id="path28" />
        <path
           d="m 299.45324,202.1152 c 1.86415,0 3.21751,0.46998 4.06014,1.40997 0.84584,0.93999 1.26878,2.28283 1.26878,4.02853 v 10.14325 h -2.54736 v -10.40222 c 0,-0.86325 -0.28138,-1.57465 -0.84422,-2.13415 -0.55956,-0.56271 -1.33709,-0.84407 -2.33263,-0.84407 -1.43469,0 -2.55546,0.43482 -3.3623,1.30447 -0.80357,0.86646 -1.20536,1.99027 -1.20536,3.37148 v 8.70448 h -2.54732 v -15.23643 h 2.40096 v 2.4171 h 0.0585 c 0.56607,-0.94958 1.26068,-1.64656 2.08375,-2.09099 0.82635,-0.44761 1.81534,-0.6714 2.96702,-0.6714 z"
           fill="#ffffff"
           stroke="none"
           stroke-width="1"
           stroke-linecap="square"
           stroke-linejoin="miter"
           id="path29" />
        <path
           d="m 318.20696,209.82692 c -0.42946,0.29735 -0.98576,0.49877 -1.66897,0.60428 -0.6832,0.1055 -1.59088,0.23501 -2.72301,0.38847 -1.13217,0.16305 -1.97152,0.4652 -2.51808,0.90641 -0.54652,0.44122 -0.81981,1.0647 -0.81981,1.87039 0,0.70979 0.26351,1.26131 0.79053,1.65458 0.52706,0.39326 1.26391,0.58988 2.21062,0.58988 1.43473,0 2.5815,-0.35009 3.44039,-1.05027 0.85885,-0.70019 1.28832,-1.48193 1.28832,-2.34518 v -2.61854 z m -3.25007,-7.71172 c 2.10813,0 3.60303,0.36928 4.4847,1.10784 0.8849,0.73854 1.32732,1.72649 1.32732,2.96382 0,5.28505 0,8.2153 0,8.79082 0,0.5755 0.26842,0.86325 0.80521,0.86325 0.1171,0 0.244,-0.0144 0.38064,-0.0431 0.13664,-0.0288 0.26837,-0.0623 0.39525,-0.10071 v 1.94231 c -0.23423,0.13429 -0.50588,0.2366 -0.81494,0.30693 -0.30582,0.0735 -0.63929,0.11031 -1.00039,0.11031 -0.70271,0 -1.2395,-0.19344 -1.61038,-0.5803 -0.37088,-0.39007 -0.55634,-0.98314 -0.55634,-1.77926 -0.67343,0.78651 -1.46887,1.37641 -2.38627,1.76967 -0.91744,0.39326 -1.94225,0.58988 -3.07438,0.58988 -1.60065,0 -2.85478,-0.37088 -3.76245,-1.11264 -0.90767,-0.74496 -1.3615,-1.79844 -1.3615,-3.16048 0,-1.3716 0.44407,-2.45706 1.33223,-3.25638 0.88812,-0.8025 2.97674,-1.40519 6.26586,-1.80804 1.11264,-0.14388 1.86575,-0.3549 2.2594,-0.63304 0.39692,-0.27817 0.59538,-0.6954 0.59538,-1.25172 0,-0.84407 -0.27656,-1.47395 -0.82962,-1.88957 -0.54979,-0.41883 -1.42492,-0.62826 -2.62541,-0.62826 -1.25905,0 -2.20413,0.23499 -2.83525,0.70498 -0.62788,0.47 -0.96625,1.19896 -1.01504,2.18691 h -2.54735 c 0.0781,-1.68814 0.6832,-2.95905 1.81533,-3.8127 1.13217,-0.85366 2.71814,-1.28048 4.75798,-1.28048 z"
           fill="#ffffff"
           stroke="none"
           stroke-width="1"
           stroke-linecap="square"
           stroke-linejoin="miter"
           id="path30" />
        <path
           d="m 235.10406,150.03788 c -0.42945,0.29735 -0.98576,0.49877 -1.66894,0.60429 -0.68321,0.1055 -1.59088,0.23499 -2.72303,0.38845 -1.13215,0.16306 -1.9715,0.4652 -2.51806,0.90642 -0.54654,0.44122 -0.81983,1.06468 -0.81983,1.87037 0,0.7098 0.26352,1.26131 0.79055,1.65458 0.52703,0.39326 1.26391,0.58989 2.21062,0.58989 1.43471,0 2.5815,-0.3501 3.44037,-1.05029 0.85887,-0.7002 1.28831,-1.48192 1.28831,-2.34518 z m -3.25005,-7.71172 c 2.10815,0 3.60304,0.36928 4.48468,1.10784 0.8849,0.73856 1.32734,1.72651 1.32734,2.96384 0,5.28504 0,8.21531 0,8.79081 0,0.5755 0.26839,0.86326 0.80518,0.86326 0.11712,0 0.244,-0.0144 0.38064,-0.0432 0.13664,-0.0288 0.26839,-0.0623 0.39527,-0.10072 v 1.94232 c -0.23423,0.13429 -0.50589,0.2366 -0.81494,0.30695 -0.30581,0.0735 -0.63927,0.11029 -1.00039,0.11029 -0.70271,0 -1.23952,-0.19344 -1.61039,-0.5803 -0.37088,-0.39006 -0.55632,-0.98315 -0.55632,-1.77927 -0.67343,0.78653 -1.46887,1.37642 -2.3863,1.76967 -0.91743,0.39326 -1.94223,0.58989 -3.07438,0.58989 -1.60063,0 -2.85478,-0.37088 -3.76245,-1.11263 -0.90767,-0.74495 -1.36151,-1.79844 -1.36151,-3.16048 0,-1.37161 0.44407,-2.45708 1.33223,-3.25638 0.88814,-0.8025 2.97677,-1.4052 6.26586,-1.80805 1.11263,-0.14388 1.8658,-0.3549 2.25943,-0.63306 0.39692,-0.27816 0.59536,-0.69539 0.59536,-1.25171 0,-0.84407 -0.27653,-1.47393 -0.8296,-1.88957 -0.5498,-0.41885 -1.42493,-0.62826 -2.62541,-0.62826 -1.25902,0 -2.20413,0.235 -2.83526,0.705 -0.62789,0.46999 -0.96623,1.19897 -1.01504,2.18692 h -2.54735 c 0.0781,-1.68814 0.68321,-2.95905 1.81535,-3.81271 1.13213,-0.85366 2.71813,-1.2805 4.75797,-1.2805 z"
           fill="#ffffff"
           stroke="none"
           stroke-width="1"
           stroke-linecap="square"
           stroke-linejoin="miter"
           id="path31" />
        <path
           d="m 248.88018,144.52745 c -1.49326,0 -2.65307,0.53714 -3.4794,1.61141 -0.82309,1.07428 -1.23464,2.45548 -1.23464,4.14362 0,1.76487 0.43431,3.16847 1.30295,4.21077 0.86863,1.03911 2.06421,1.55866 3.58676,1.55866 1.47376,0 2.61566,-0.51795 3.42574,-1.55387 0.81008,-1.0359 1.21511,-2.47946 1.21511,-4.33065 0,-1.64018 -0.42782,-2.98942 -1.28344,-4.04771 -0.85236,-1.06149 -2.03007,-1.59222 -3.5331,-1.59222 z m 0.38065,-2.20129 c 2.21551,0 3.95928,0.74816 5.23132,2.24447 1.2753,1.49631 1.91294,3.41945 1.91294,5.76943 0,2.35956 -0.63439,4.2715 -1.90319,5.73584 -1.26879,1.46113 -2.99141,2.1917 -5.16787,2.1917 -0.96624,0 -1.91133,-0.19663 -2.83525,-0.58989 -0.92069,-0.39325 -1.64945,-0.99275 -2.18624,-1.79844 h -0.0586 v 7.87 h -2.54735 v -21.0778 h 2.54735 v 2.07182 h 0.0586 c 0.40015,-0.78653 1.0313,-1.38601 1.89343,-1.79845 0.86538,-0.41243 1.88366,-0.61867 3.05486,-0.61867 z"
           fill="#ffffff"
           stroke="none"
           stroke-width="1"
           stroke-linecap="square"
           stroke-linejoin="miter"
           id="path32" />
        <path
           d="m 266.65301,144.52745 c -1.49326,0 -2.65308,0.53714 -3.47941,1.61141 -0.82307,1.07428 -1.23464,2.45548 -1.23464,4.14362 0,1.76487 0.43433,3.16847 1.30295,4.21077 0.86864,1.03911 2.06423,1.55866 3.58678,1.55866 1.47373,0 2.61566,-0.51795 3.42574,-1.55387 0.81008,-1.0359 1.21511,-2.47946 1.21511,-4.33065 0,-1.64018 -0.42782,-2.98942 -1.28343,-4.04771 -0.85236,-1.06149 -2.03007,-1.59222 -3.53311,-1.59222 z m 0.38066,-2.20129 c 2.21549,0 3.95926,0.74816 5.2313,2.24447 1.27531,1.49631 1.91295,3.41945 1.91295,5.76943 0,2.35956 -0.63438,4.2715 -1.90318,5.73584 -1.26879,1.46113 -2.99143,2.1917 -5.16789,2.1917 -0.96624,0 -1.91132,-0.19663 -2.83525,-0.58989 -0.92069,-0.39325 -1.64943,-0.99275 -2.18622,-1.79844 h -0.0586 v 7.87 h -2.54734 v -21.0778 h 2.54734 v 2.07182 h 0.0586 c 0.40015,-0.78653 1.03129,-1.38601 1.89343,-1.79845 0.86538,-0.41243 1.88366,-0.61867 3.05486,-0.61867 z"
           fill="#ffffff"
           stroke="none"
           stroke-width="1"
           stroke-linecap="square"
           stroke-linejoin="miter"
           id="path33" />
        <path
           d="m 279.85818,136.87326 v 21.03463 h -2.54734 v -21.03463 z"
           fill="#ffffff"
           stroke="none"
           stroke-width="1"
           stroke-linecap="square"
           stroke-linejoin="miter"
           id="path34" />
        <path
           d="m 290.09146,144.52745 c -1.17118,0 -2.17157,0.38847 -3.00117,1.1654 -0.8296,0.77693 -1.29807,1.82243 -1.40544,3.1365 h 8.90104 c -0.0781,-1.23733 -0.53515,-2.26364 -1.37127,-3.07894 -0.83285,-0.8153 -1.87388,-1.22296 -3.12316,-1.22296 z m 0.17569,-2.20129 c 2.22526,0 3.95277,0.78652 5.18251,2.35957 1.22977,1.57305 1.84461,3.5921 1.84461,6.05717 v 0.30214 h -11.60941 v 0.18704 c 0,1.44835 0.42944,2.61374 1.28831,3.49619 0.85888,0.88243 2.03981,1.32365 3.54286,1.32365 1.13213,0 2.03171,-0.25898 2.69859,-0.77692 0.67021,-0.51795 1.10776,-1.25172 1.31273,-2.2013 h 2.51804 c -0.3416,1.68814 -1.09309,2.97662 -2.25454,3.86547 -1.16141,0.88564 -2.61563,1.32844 -4.3627,1.32844 -1.62987,0 -3.00929,-0.36128 -4.1382,-1.08385 -1.12563,-0.72577 -1.95686,-1.73292 -2.49365,-3.0214 -0.53679,-1.29169 -0.80518,-2.61374 -0.80518,-3.96617 0,-2.24447 0.68807,-4.11644 2.06421,-5.61595 1.37616,-1.5027 3.11342,-2.25406 5.21182,-2.25406 z"
           fill="#ffffff"
           stroke="none"
           stroke-width="1"
           stroke-linecap="square"
           stroke-linejoin="miter"
           id="path35" />
        <path
           d="m 232.87105,265.61623 c -1.36638,0 -2.50829,0.52114 -3.42574,1.56344 -0.91742,1.0391 -1.37614,2.44588 -1.37614,4.22035 0,1.74568 0.45383,3.1397 1.3615,4.18199 0.90767,1.03911 2.06423,1.55865 3.46965,1.55865 1.39569,0 2.54898,-0.52274 3.4599,-1.56824 0.91419,-1.0455 1.37127,-2.43629 1.37127,-4.17239 0,-1.7361 -0.45383,-3.13329 -1.3615,-4.19157 -0.90767,-1.06149 -2.07399,-1.59222 -3.49894,-1.59222 z m 0.0293,-2.2013 c 2.3424,0 4.18212,0.74334 5.51924,2.23006 1.33712,1.48672 2.00566,3.40507 2.00566,5.75503 0,2.36917 -0.68318,4.28751 -2.04958,5.75503 -1.36639,1.46754 -3.19151,2.2013 -5.47534,2.2013 -2.24478,0 -4.06012,-0.72098 -5.44603,-2.16294 -1.38591,-1.44515 -2.07887,-3.37628 -2.07887,-5.79339 0,-2.41712 0.67833,-4.35143 2.03495,-5.80299 1.35662,-1.45475 3.18661,-2.1821 5.48995,-2.1821 z"
           fill="#ffffff"
           stroke="none"
           stroke-width="1"
           stroke-linecap="square"
           stroke-linejoin="miter"
           id="path36" />
        <path
           d="m 262.28258,271.12667 c -0.42944,0.29735 -0.98576,0.49877 -1.66894,0.60428 -0.6832,0.1055 -1.59088,0.23502 -2.72303,0.38848 -1.13215,0.16305 -1.9715,0.4652 -2.51807,0.90641 -0.54654,0.44122 -0.81983,1.06469 -0.81983,1.87039 0,0.70979 0.26351,1.26131 0.79055,1.65458 0.52704,0.39326 1.26391,0.58988 2.21062,0.58988 1.43471,0 2.58149,-0.35008 3.44037,-1.05027 0.85888,-0.70019 1.28832,-1.48194 1.28832,-2.34519 v -2.61854 z m -10.97991,-7.72615 c 0.0488,0 0.11223,0.005 0.1903,0.0144 v 2.64731 c -1.91294,0 -3.3265,0.49877 -4.24068,1.49631 -0.91094,0.99754 -1.36638,2.53702 -1.36638,4.61842 v 6.8197 h -2.54735 v -15.23644 h 2.40093 v 3.20842 h 0.0586 c 0.59536,-1.20857 1.32898,-2.10538 2.20085,-2.69048 0.87515,-0.5851 1.92273,-0.87763 3.14271,-0.87763 z m 7.72986,0.0144 c 2.10815,0 3.60304,0.36928 4.48469,1.10784 0.8849,0.73854 1.32734,1.7265 1.32734,2.96382 0,5.28505 0,8.2153 0,8.79082 0,0.57551 0.26839,0.86325 0.80518,0.86325 0.11712,0 0.24401,-0.0144 0.38065,-0.0432 0.13664,-0.0288 0.26839,-0.0623 0.39526,-0.10072 v 1.94233 c -0.23423,0.13429 -0.50588,0.2366 -0.81493,0.30693 -0.30582,0.0736 -0.63927,0.1103 -1.00039,0.1103 -0.70271,0 -1.23952,-0.19343 -1.61039,-0.58029 -0.37088,-0.39007 -0.55632,-0.98314 -0.55632,-1.77927 -0.67343,0.78652 -1.46887,1.37643 -2.38629,1.76969 -0.91744,0.39326 -1.94223,0.58988 -3.07438,0.58988 -1.60063,0 -2.85479,-0.37088 -3.76246,-1.11264 -0.90767,-0.74496 -1.3615,-1.79845 -1.3615,-3.16048 0,-1.3716 0.44407,-2.45706 1.33223,-3.25638 0.88815,-0.8025 2.97677,-1.40519 6.26586,-1.80804 1.11264,-0.14388 1.86577,-0.35489 2.25942,-0.63304 0.39692,-0.27817 0.59536,-0.6954 0.59536,-1.25173 0,-0.84407 -0.27653,-1.47395 -0.82959,-1.88957 -0.54979,-0.41883 -1.42494,-0.62825 -2.62541,-0.62825 -1.25903,0 -2.20412,0.23499 -2.83525,0.70498 -0.62788,0.47 -0.96623,1.19896 -1.01504,2.18691 h -2.54735 c 0.0781,-1.68814 0.68321,-2.95905 1.81536,-3.8127 1.13213,-0.85366 2.71812,-1.28048 4.75796,-1.28048 z"
           fill="#ffffff"
           stroke="none"
           stroke-width="1"
           stroke-linecap="square"
           stroke-linejoin="miter"
           id="path37" />
        <path
           d="m 276.3076,263.41493 c 1.86414,0 3.21752,0.46998 4.06012,1.40997 0.84587,0.93999 1.26879,2.28283 1.26879,4.02852 v 10.14325 h -2.54735 v -10.40222 c 0,-0.86325 -0.28141,-1.57465 -0.84423,-2.13415 -0.55956,-0.56272 -1.33711,-0.84407 -2.33263,-0.84407 -1.43471,0 -2.55548,0.43482 -3.3623,1.30446 -0.80355,0.86646 -1.20534,1.99027 -1.20534,3.37148 v 8.70448 h -2.54734 v -15.23643 h 2.40093 v 2.4171 h 0.0586 c 0.56607,-0.94957 1.26065,-1.64656 2.08374,-2.09099 0.82635,-0.44761 1.81535,-0.6714 2.96703,-0.6714 z"
           fill="#ffffff"
           stroke="none"
           stroke-width="1"
           stroke-linecap="square"
           stroke-linejoin="miter"
           id="path38" />
        <path
           d="m 291.88446,265.61623 c -1.42496,0 -2.54086,0.50356 -3.34766,1.51069 -0.80357,1.00712 -1.20536,2.34996 -1.20536,4.02852 0,1.81282 0.38552,3.2356 1.15654,4.26831 0.77106,1.0295 1.84466,1.54426 3.2208,1.54426 1.40542,0 2.52455,-0.53395 3.3574,-1.60181 0.83612,-1.0711 1.25418,-2.50345 1.25418,-4.2971 0,-1.6306 -0.38551,-2.94626 -1.15653,-3.94699 -0.77106,-1.00393 -1.86416,-1.50589 -3.27935,-1.50589 z m -0.10251,-2.2013 c 1.08336,0 2.02029,0.23019 2.81087,0.69061 0.79057,0.4604 1.40055,1.07425 1.82998,1.84161 h 0.0293 v -2.18691 h 2.3863 v 14.09981 c 0,2.38833 -0.58561,4.20596 -1.7568,5.45288 -1.17119,1.24692 -2.97679,1.87039 -5.41674,1.87039 -1.77633,0 -3.27284,-0.38367 -4.48956,-1.151 -1.21349,-0.76735 -1.85927,-1.87517 -1.93736,-3.32354 h 2.54735 c 0.039,0.77693 0.46034,1.38281 1.26391,1.81763 0.80685,0.43803 1.72265,0.65704 2.74741,0.65704 1.50305,0 2.65472,-0.48918 3.45503,-1.46751 0.80031,-0.97836 1.20046,-2.43151 1.20046,-4.35944 v -0.94958 h -0.0585 c -0.40015,0.84407 -1.03291,1.5155 -1.8983,2.01427 -0.86212,0.49878 -1.84461,0.74815 -2.94751,0.74815 -2.0984,0 -3.77545,-0.70981 -5.03122,-2.12936 -1.25254,-1.41958 -1.8788,-3.28036 -1.8788,-5.58238 0,-2.33078 0.62625,-4.25392 1.8788,-5.76941 1.25577,-1.5155 3.01093,-2.27324 5.26547,-2.27324 z"
           fill="#ffffff"
           stroke="none"
           stroke-width="1"
           stroke-linecap="square"
           stroke-linejoin="miter"
           id="path39" />
        <path
           d="m 308.95457,265.61623 c -1.17118,0 -2.17159,0.38845 -3.0012,1.1654 -0.82957,0.77691 -1.29805,1.82241 -1.40542,3.13649 h 8.90105 c -0.0781,-1.23733 -0.53515,-2.26364 -1.37127,-3.07894 -0.83285,-0.81531 -1.87388,-1.22295 -3.12315,-1.22295 z m 0.17568,-2.2013 c 2.22526,0 3.95274,0.78653 5.18251,2.35955 1.22977,1.57304 1.84461,3.59209 1.84461,6.05718 v 0.30213 h -11.60942 v 0.18705 c 0,1.44835 0.42943,2.61373 1.28832,3.49618 0.85885,0.88243 2.0398,1.32364 3.54286,1.32364 1.13213,0 2.03167,-0.25897 2.6986,-0.77691 0.67021,-0.51797 1.10777,-1.25173 1.31273,-2.2013 h 2.51804 c -0.3416,1.68814 -1.09309,2.97661 -2.25454,3.86546 -1.16144,0.88563 -2.61563,1.32845 -4.3627,1.32845 -1.62987,0 -3.00929,-0.36129 -4.13819,-1.08387 -1.12563,-0.72576 -1.95689,-1.73289 -2.49368,-3.02139 -0.53679,-1.29167 -0.80517,-2.61373 -0.80517,-3.96616 0,-2.24446 0.68807,-4.11644 2.06421,-5.61595 1.37614,-1.5027 3.11343,-2.25405 5.21182,-2.25405 z"
           fill="#ffffff"
           stroke="none"
           stroke-width="1"
           stroke-linecap="square"
           stroke-linejoin="miter"
           id="path40" />
      </g>
    </g>
    <path
       d="M 0,0 H 600 V 300 H 0 Z"
       fill-opacity="0"
       fill="#000000"
       fill-rule="evenodd"
       stroke="none"
       stroke-width="1"
       stroke-linecap="square"
       stroke-linejoin="miter"
       id="path57" />
  </g>
</svg>
