<svg
   width="600"
   height="300"
   viewBox="0 0 158.75 79.375"
   version="1.1"
   id="svg10"
   xmlns="http://www.w3.org/2000/svg"
   xmlns:svg="http://www.w3.org/2000/svg">
  <defs
     id="defs10" />
  <path
     fill="red"
     d="M 0,79.375 V 0 h 158.75 v 79.375 z"
     style="mix-blend-mode:normal;fill:#ff8e4c;fill-opacity:1;fill-rule:nonzero;stroke:none;stroke-width:0.898027;stroke-linecap:butt;stroke-linejoin:miter;stroke-miterlimit:10;stroke-dasharray:none;stroke-dashoffset:0"
     id="path1" />
  <g
     stroke="#ffb878"
     fill="none"
     stroke-linecap="round"
     id="g18"
     transform="matrix(0.31658137,0,0,0.31658136,-47.257397,-86.94507)"
     style="stroke-width:0.835751">
    <circle
       r="243"
       cx="400"
       cy="400"
       stroke-width="10.029"
       stroke-dasharray="1283, 1527"
       id="circle1" />
    <circle
       r="229.5"
       cx="400"
       cy="400"
       stroke-width="10.029"
       stroke-dasharray="1140, 1442"
       transform="rotate(-21,400,400)"
       id="circle2" />
    <circle
       r="216"
       cx="400"
       cy="400"
       stroke-width="10.029"
       stroke-dasharray="1006, 1357"
       transform="rotate(-42,400,400)"
       id="circle3" />
    <circle
       r="202.5"
       cx="400"
       cy="400"
       stroke-width="10.029"
       stroke-dasharray="880, 1272"
       transform="rotate(-64,400,400)"
       id="circle4" />
    <circle
       r="189"
       cx="400"
       cy="400"
       stroke-width="10.029"
       stroke-dasharray="763, 1188"
       transform="rotate(-85,400,400)"
       id="circle5" />
    <circle
       r="175.5"
       cx="400"
       cy="400"
       stroke-width="10.029"
       stroke-dasharray="654, 1103"
       transform="rotate(-106,400,400)"
       id="circle6" />
    <circle
       r="162"
       cx="400"
       cy="400"
       stroke-width="10.029"
       stroke-dasharray="553, 1018"
       transform="rotate(-127,400,400)"
       id="circle7" />
    <circle
       r="148.5"
       cx="400"
       cy="400"
       stroke-width="10.029"
       stroke-dasharray="461, 933"
       transform="rotate(-148,400,400)"
       id="circle8" />
    <circle
       r="135"
       cx="400"
       cy="400"
       stroke-width="10.029"
       stroke-dasharray="377, 848"
       transform="rotate(-169,400,400)"
       id="circle9" />
    <circle
       r="121.5"
       cx="400"
       cy="400"
       stroke-width="10.029"
       stroke-dasharray="302, 763"
       transform="rotate(169,400,400)"
       id="circle10" />
    <circle
       r="108"
       cx="400"
       cy="400"
       stroke-width="10.029"
       stroke-dasharray="235, 679"
       transform="rotate(148,400,400)"
       id="circle11" />
    <circle
       r="94.5"
       cx="400"
       cy="400"
       stroke-width="10.029"
       stroke-dasharray="176, 594"
       transform="rotate(127,400,400)"
       id="circle12" />
    <circle
       r="81"
       cx="400"
       cy="400"
       stroke-width="10.029"
       stroke-dasharray="126, 509"
       transform="rotate(106,400,400)"
       id="circle13" />
    <circle
       r="67.5"
       cx="400"
       cy="400"
       stroke-width="10.029"
       stroke-dasharray="84, 424"
       transform="rotate(85,400,400)"
       id="circle14" />
    <circle
       r="54"
       cx="400"
       cy="400"
       stroke-width="10.029"
       stroke-dasharray="50, 339"
       transform="rotate(64,400,400)"
       id="circle15" />
    <circle
       r="40.5"
       cx="400"
       cy="400"
       stroke-width="10.029"
       stroke-dasharray="25, 254"
       transform="rotate(42,400,400)"
       id="circle16" />
    <circle
       r="27"
       cx="400"
       cy="400"
       stroke-width="10.029"
       stroke-dasharray="8, 170"
       transform="rotate(21,400,400)"
       id="circle17" />
    <circle
       r="13.5"
       cx="400"
       cy="400"
       stroke-width="10.029"
       stroke-dasharray="0, 85"
       id="circle18" />
  </g>
  <path
     d="m 105.54858,39.921984 c 0.094,3.064714 -0.89796,6.036987 -2.89519,9.046667 -1.64181,2.37544 -4.244269,4.79875 -7.805235,7.26961 -6.075897,4.20459 -11.719724,6.76474 -16.934113,7.67754 -0.999062,0.21644 -2.674795,0.54797 -5.025472,0.99874 -2.350678,0.45077 -3.588933,0.68563 -3.715838,0.70473 l -5.391269,0.81186 c -0.917739,0.33287 -1.759688,0.31448 -2.523704,-0.0555 -0.764765,-0.36767 -1.275472,-0.98367 -1.536573,-1.84842 0.627496,-1.83664 2.250906,-2.82241 4.875437,-2.95917 4.092123,-0.22907 6.409844,-0.48241 6.948271,-0.75596 -0.208754,-1.38626 -0.55254,-3.23832 -1.02964,-5.55204 -0.736049,-3.1788 -1.189479,-5.10893 -1.355399,-5.79445 -1.113951,-5.25009 -3.078578,-14.659275 -5.895605,-28.231696 -0.207047,-0.936686 -0.468354,-1.605635 -0.786736,-2.010826 -0.344685,-0.141666 -0.754435,-0.07996 -1.230323,0.185272 -0.601715,0.284181 -1.344586,0.492837 -2.226458,0.625636 -1.388417,0.209079 -2.703795,0.150892 -3.94463,-0.179178 -1.242825,-0.328676 -1.930022,-0.93349 -2.063306,-1.81859 -0.04745,-0.315111 -0.0049,-0.675658 0.127154,-1.083799 0.466881,-1.61779 1.832861,-2.596677 4.104227,-2.938717 0.504391,-0.07596 1.428083,-0.150161 2.771995,-0.223856 1.09134,-0.03456 1.883111,-0.122994 2.379183,-0.261487 0.494998,-0.13833 2.947024,-0.346996 7.354094,-0.624602 3.390135,-0.187159 6.190633,-0.221729 8.401497,-0.103725 8.148111,0.580046 15.470655,4.668628 21.970103,12.267589 1.10051,1.319067 2.39225,3.477114 3.87802,6.478127 0.84117,1.744167 1.4325,4.560965 1.54951,8.376245 z m -6.401909,5.026877 c 0.947059,-2.27082 1.237559,-4.636339 0.867179,-7.095908 -0.89251,-5.926847 -5.029601,-11.335398 -12.407401,-16.221855 -0.934585,-0.633553 -2.903771,-1.498457 -5.905241,-2.593954 -4.016259,-1.392521 -8.434546,-1.824829 -13.255289,-1.292458 2.814603,14.410867 5.029028,25.040655 6.640375,31.892005 0.593534,2.2324 1.480296,5.55017 2.659957,9.95119 3.307574,-0.30451 6.91815,-1.606 10.828498,-3.90402 3.91051,-2.29693 7.106492,-5.05159 9.591154,-8.26444 0.05083,-0.0714 0.37991,-0.89529 0.980776,-2.47057 z"
     fill="#ffffff"
     stroke="#ffffff"
     stroke-width="5.95312"
     id="path10-4" />
</svg>
