<svg
   width="600"
   height="300"
   viewBox="0 0 600 300"
   version="1.1"
   id="svg45"
   xml:space="preserve"
   xmlns:xlink="http://www.w3.org/1999/xlink"
   xmlns="http://www.w3.org/2000/svg"
   xmlns:svg="http://www.w3.org/2000/svg"><defs
     id="defs45"><linearGradient
       id="linearGradient1640"><stop
         style="stop-color:#12e5aa;stop-opacity:1;"
         offset="0.54000002"
         id="stop1640" /><stop
         style="stop-color:#0fbd8c;stop-opacity:1;"
         offset="0.56"
         id="stop1641" /></linearGradient><linearGradient
       id="linearGradient1619"><stop
         style="stop-color:#0055ff;stop-opacity:1;"
         offset="0.1"
         id="stop1620" /><stop
         style="stop-color:#006aff;stop-opacity:1;"
         offset="0.40000001"
         id="stop1619" /></linearGradient><linearGradient
       xlink:href="#linearGradient1619"
       id="linearGradient1620"
       x1="0.00390625"
       y1="254.89134"
       x2="260.00391"
       y2="254.89134"
       gradientUnits="userSpaceOnUse" /><linearGradient
       xlink:href="#linearGradient1619"
       id="linearGradient1624"
       x1="364.86667"
       y1="168.0733"
       x2="498.76596"
       y2="168.0733"
       gradientUnits="userSpaceOnUse"
       gradientTransform="matrix(0.4786421,0,0,0.33092401,150.42916,200.93097)" /><linearGradient
       xlink:href="#linearGradient1619"
       id="linearGradient1626"
       x1="364.03192"
       y1="226.61349"
       x2="373.45905"
       y2="226.61349"
       gradientUnits="userSpaceOnUse"
       gradientTransform="translate(-4.7135607,13.415519)" /><linearGradient
       xlink:href="#linearGradient1619"
       id="linearGradient1627"
       gradientUnits="userSpaceOnUse"
       gradientTransform="matrix(1.7857131,0,0,1.7857131,-320.05657,-127.56009)"
       x1="364.03192"
       y1="226.61349"
       x2="373.45905"
       y2="226.61349" /><linearGradient
       xlink:href="#linearGradient1619"
       id="linearGradient1628"
       gradientUnits="userSpaceOnUse"
       gradientTransform="translate(14.554013,45.960839)"
       x1="364.03192"
       y1="226.61349"
       x2="373.45905"
       y2="226.61349" /><linearGradient
       xlink:href="#linearGradient1619"
       id="linearGradient1635"
       x1="325.0697"
       y1="259.56491"
       x2="388.9136"
       y2="259.56491"
       gradientUnits="userSpaceOnUse" /><linearGradient
       xlink:href="#linearGradient1619"
       id="linearGradient1636"
       gradientUnits="userSpaceOnUse"
       x1="325.0697"
       y1="259.56491"
       x2="388.9136"
       y2="259.56491" /><linearGradient
       xlink:href="#linearGradient1619"
       id="linearGradient1639"
       gradientUnits="userSpaceOnUse"
       x1="325.0697"
       y1="259.56491"
       x2="388.9136"
       y2="259.56491" /><linearGradient
       xlink:href="#linearGradient1640"
       id="linearGradient1641"
       x1="300.00391"
       y1="0.0078125"
       x2="300.00391"
       y2="300.00781"
       gradientUnits="userSpaceOnUse" /></defs><path
     style="fill:url(#linearGradient1641);fill-opacity:1;fill-rule:nonzero;stroke:none"
     d="M 0.00390625,300.00781 V 0.0078125 H 600.00391 V 300.00781 Z m 0,0"
     id="path1" /><path
     style="fill:none;fill-opacity:1;stroke:#ffffff;stroke-width:9.9998;stroke-linecap:round;stroke-linejoin:round;stroke-dasharray:none;stroke-opacity:0.25;paint-order:stroke fill markers"
     d="m 0.00390625,24.594347 c 0,0 99.33118275,-12.842373 147.39134375,-7.116752 34.46978,4.106538 55.07838,27.242494 90.39156,28.467005 40.86121,1.416894 72.19208,-29.539922 112.34444,-25.416968 31.27732,3.211641 34.60523,31.99708 65.74694,35.536045 43.85013,4.983156 82.50512,-32.152247 125.36041,-25.271143 13.72976,2.204535 10.23107,16.044294 23.87817,18.378972 11.69107,2.00005 34.88714,-6.276942 34.88714,-6.276942"
     id="path1641" /><path
     style="fill:none;fill-opacity:1;stroke:#ffffff;stroke-width:9.99984;stroke-linecap:round;stroke-linejoin:round;stroke-dasharray:none;stroke-opacity:0.25;paint-order:stroke fill markers"
     d="m 0.00390625,70.513706 c 0,0 39.97417875,21.484707 62.67629975,19.06385 20.542072,-2.190519 25.236727,-25.47613 45.643124,-28.164799 30.24929,-3.985527 58.68351,12.856154 86.68175,21.414602 13.78508,4.213788 24.63611,14.089331 39.79696,14.667248 20.71729,0.789741 37.11662,-13.215987 57.50365,-15.777733 30.98676,-3.893664 63.64471,-2.863932 94.60803,1.110485 28.27649,3.62954 51.95357,21.633351 80.70051,20.434501 21.77522,-0.90808 35.91397,-19.718921 57.70559,-20.434501 26.90868,-0.883608 74.68409,20.440611 74.68409,20.440611"
     id="path1642" /><path
     style="fill:none;fill-opacity:1;stroke:#ffffff;stroke-width:9.99984;stroke-linecap:round;stroke-linejoin:round;stroke-dasharray:none;stroke-opacity:0.25;paint-order:stroke fill markers"
     d="m 600.00391,145.3955 c 0,0 -63.33492,-21.59339 -79.27146,-20.1502 -15.93653,1.44319 -9.55172,9.54713 -26.20137,13.67322 -33.14547,8.21405 -84.0362,6.33758 -111.91851,2.67845 -27.88231,-3.65913 -31.83652,-15.28193 -52.39156,-16.14778 -29.11713,-1.22651 -51.15176,19.88748 -80.34444,19.53471 -24.36841,-0.29448 -34.60523,-15.34736 -65.74694,-17.91145 -43.85013,-3.61045 -82.50512,19.9372 -125.360414,14.95164 -13.72976,-1.59726 -10.23107,-11.62457 -23.87817,-13.31612 -11.69107,-1.44909 -34.88713975,4.54783 -34.88713975,4.54783"
     id="path1643" /><path
     style="fill:url(#linearGradient1620);fill-rule:nonzero;stroke:none"
     d="m 0.00390625,300.00781 v -76 c 0,0 40.51838875,-9.65003 64.50000075,-2.5 23.981612,7.15002 45.389243,19.48721 64.500003,21.5 19.11076,2.01279 33.32309,-17.13172 56.5,-14.5 23.17691,2.63172 74.5,-9.9337 74.5,-9.9337 0,0 -24.64796,17.34925 -34,27.4337 -9.35204,10.08445 -11.96697,26.93755 -24,32 -12.03303,5.06245 -24.71726,-7.23101 -38,-5 -13.28274,2.23101 -22.87433,17.03595 -38,19 -15.12567,1.96405 -34.667645,-12.5821 -48,-10 -13.332355,2.5821 -13.688453,13.96959 -27.000002,18 -13.311549,4.03041 -51.00000175,0 -51.00000175,0 z"
     id="path1619" /><g
     id="g1628"
     transform="matrix(2.3150156,0,0,1.6760841,-400.97624,-199.22374)"
     style="stroke-width:0.507663"><path
       style="fill:url(#linearGradient1624);stroke:none;stroke-width:0;stroke-linecap:butt;stroke-linejoin:round;stroke-dasharray:none;stroke-opacity:0.14902;paint-order:stroke fill markers"
       d="m 332.7505,250.78794 c 3.84016,-3.02076 10.10411,-7.51709 15.98714,-7.76075 5.88302,-0.24365 7.29772,4.45232 13.94622,5.17384 6.64849,0.72152 17.79615,-7.9 24.15077,-3.05727 6.35463,4.84274 -3.38106,18.05772 -8.84394,21.40087 -5.46288,3.34315 -6.29373,8.82394 -12.20854,9.45158 -5.91481,0.62764 -9.04477,-6.13754 -13.64299,-6.62948 -9.19644,-0.98387 -24.22912,-4.23319 -26.53184,-9.17181 -2.30273,-4.93862 3.30303,-6.38621 7.14318,-9.40698 z"
       id="path1622" /><path
       id="path1624"
       style="fill:url(#linearGradient1626);stroke-width:0;stroke-linejoin:round;stroke-opacity:0.14902;paint-order:stroke fill markers"
       d="m 368.74548,240.02901 a 4.7135606,2.5380712 0 0 1 -4.71356,2.53808 4.7135606,2.5380712 0 0 1 -4.71356,-2.53808 4.7135606,2.5380712 0 0 1 4.71356,-2.53807 4.7135606,2.5380712 0 0 1 4.71356,2.53807 z" /><path
       id="path1624-5"
       style="fill:url(#linearGradient1628);stroke-width:0;stroke-linejoin:round;stroke-opacity:0.14902;paint-order:stroke fill markers"
       d="m 388.01305,272.57433 a 4.7135606,2.5380712 0 0 1 -4.71356,2.53808 4.7135606,2.5380712 0 0 1 -4.71356,-2.53808 4.7135606,2.5380712 0 0 1 4.71356,-2.53807 4.7135606,2.5380712 0 0 1 4.71356,2.53807 z" /><path
       id="path1624-2"
       style="fill:url(#linearGradient1627);stroke-width:0;stroke-linejoin:round;stroke-opacity:0.14902;paint-order:stroke fill markers"
       d="m 346.83413,277.10659 a 8.4170669,4.532267 0 0 1 -8.41706,4.53229 8.4170669,4.532267 0 0 1 -8.41707,-4.53229 8.4170669,4.532267 0 0 1 8.41707,-4.53226 8.4170669,4.532267 0 0 1 8.41706,4.53226 z" /></g><g
     id="g1631"
     transform="matrix(0.88129501,0,0,0.54926584,-167.21972,45.543246)"
     style="fill:url(#linearGradient1635);stroke-width:1.4373"><path
       style="fill:url(#linearGradient1636);fill-opacity:1;stroke:none;stroke-width:0;stroke-linecap:butt;stroke-linejoin:round;stroke-dasharray:none;stroke-opacity:0.14902;paint-order:stroke fill markers"
       d="m 332.7505,250.78794 c 3.84016,-3.02076 10.10411,-7.51709 15.98714,-7.76075 5.88302,-0.24365 7.29772,4.45232 13.94622,5.17384 6.64849,0.72152 17.79615,-7.9 24.15077,-3.05727 6.35463,4.84274 -3.38106,18.05772 -8.84394,21.40087 -5.46288,3.34315 -6.29373,8.82394 -12.20854,9.45158 -5.91481,0.62764 -9.04477,-6.13754 -13.64299,-6.62948 -9.19644,-0.98387 -24.22912,-4.23319 -26.53184,-9.17181 -2.30273,-4.93862 3.30303,-6.38621 7.14318,-9.40698 z"
       id="path1628" /><path
       id="path1631"
       style="fill:url(#linearGradient1639);fill-opacity:1;stroke-width:0;stroke-linejoin:round;stroke-opacity:0.14902;paint-order:stroke fill markers"
       d="m 346.83413,277.10659 a 8.4170669,4.532267 0 0 1 -8.41706,4.53229 8.4170669,4.532267 0 0 1 -8.41707,-4.53229 8.4170669,4.532267 0 0 1 8.41707,-4.53226 8.4170669,4.532267 0 0 1 8.41706,4.53226 z" /></g><path
     d="m 156.63116,70.01588 c 4.42376,-2.82602 2.26549,-9.68549 -2.97975,-9.47029 l -11.09297,0.46797 c -4.87568,0.20863 -9.49313,-2.19644 -12.11687,-6.31126 l -5.96754,-9.36048 c -2.82727,-4.42442 -9.68579,-2.26644 -9.46361,2.97765 l 0.4613,11.09507 c 0.20473,4.87335 -2.20082,9.48704 -6.31367,12.10924 l -9.360484,5.96754 c -4.42471,2.82632 -2.26644,9.68579 2.979754,9.47029 l 11.09202,-0.46767 c 4.87612,-0.20501 9.49202,2.20382 12.11259,6.32099 l 5.97422,9.35838 c 2.81869,4.42712 9.67816,2.26884 9.46265,-2.97735 l -0.46767,-11.09202 c -0.20881,-4.87794 2.19927,-9.49707 6.31794,-12.11897 z"
     stroke="none"
     stroke-width="1"
     id="path37"
     style="mix-blend-mode:normal;fill:#ffffff;fill-opacity:1;stroke:#000000;stroke-width:10;stroke-dasharray:none;stroke-opacity:0.14902;paint-order:stroke fill markers" /><path
     d="m 439.85597,238.48786 c -2.537,0.686 -2.537,4.285 0,4.97 l 5.365,1.442 c 2.35913,0.63263 4.20241,2.47439 4.837,4.833 l 1.443,5.366 c 0.684,2.536 4.284,2.536 4.964,0 l 1.447,-5.366 c 0.63405,-2.35748 2.47552,-4.19895 4.833,-4.833 l 5.365,-1.442 c 2.537,-0.685 2.537,-4.284 0,-4.969 l -5.365,-1.443 c -2.35835,-0.63441 -4.20006,-2.47726 -4.833,-4.836 l -1.447,-5.366 c -0.681,-2.537 -4.279,-2.537 -4.964,0 l -1.443,5.366 c -0.63298,2.36036 -2.47664,4.20402 -4.837,4.837 z"
     stroke="none"
     stroke-width="1"
     id="path39"
     style="mix-blend-mode:normal;fill:#ffffff;fill-opacity:1;stroke:#000000;stroke-width:10;stroke-dasharray:none;stroke-opacity:0.14902;paint-order:stroke fill markers" /><path
     d="m 485.34964,224.16791 c -1.97172,-0.0482 -2.74023,2.54108 -1.06128,3.57564 l 3.55189,2.18306 c 1.56217,0.9589 2.49503,2.67755 2.44793,4.50995 l -0.10769,4.16866 c -0.0494,1.97057 2.54057,2.7393 3.57132,1.06 l 2.18687,-3.55155 c 0.95957,-1.56068 2.67763,-2.49229 4.50909,-2.44504 l 4.16773,0.10818 c 1.9715,0.0489 2.74002,-2.54035 1.06106,-3.57491 l -3.55168,-2.18378 c -1.56123,-0.96001 -2.49272,-2.67911 -2.44441,-4.51125 l 0.1048,-4.16952 c 0.0518,-1.97064 -2.53675,-2.73895 -3.57131,-1.06 l -2.18399,3.5524 c -0.95942,1.56298 -2.67952,2.4957 -4.51283,2.44707 z"
     stroke="none"
     stroke-width="1"
     id="path41"
     style="mix-blend-mode:normal;fill:#ffffff;fill-opacity:1;stroke:#000000;stroke-width:10;stroke-dasharray:none;stroke-opacity:0.14902;paint-order:stroke fill markers" /><path
     id="path1618"
     style="fill:none;stroke:#000000;stroke-width:13.637;stroke-linecap:butt;stroke-linejoin:round;stroke-dasharray:none;stroke-opacity:0.14902"
     d="m 283.51007,123.351 c 0.4706,1.75632 -0.56732,3.5592 -2.32364,4.0298 -1.75633,0.47061 -3.56014,-0.57082 -4.0298,-2.32364 -0.47061,-1.75632 0.57973,-3.55499 2.33254,-4.02466 1.75633,-0.4706 3.61958,0.82076 4.0209,2.3185 z m 32.17369,-33.920685 c 0,0 -17.86949,-4.164689 -23.37807,27.994835 -2.54633,14.86069 -13.82492,9.52482 -13.82492,9.52482 m -8.5408,82.00536 -13.25341,10.25267 2.27514,-16.56128 c 1.55643,-11.30498 5.10708,-21.7852 10.57378,-31.21264 l 50.8546,-87.707338 c 2.1792,-3.753916 8.92263,-3.934397 15.07316,-0.398233 6.14162,3.531021 9.36543,9.436397 7.18623,13.190312 l -50.85366,87.710849 c -5.46576,9.43096 -12.8064,17.73788 -21.85584,24.72566" /><g
     stroke="#575e75"
     fill="none"
     fill-rule="evenodd"
     stroke-linecap="round"
     stroke-linejoin="round"
     id="g5"
     transform="matrix(3.5126495,-0.94121161,0.94121161,3.5126495,206.62594,95.64906)"
     style="stroke-width:1.00012;stroke-dasharray:none"><path
       d="m 8.753,34.602 -4.25,1.78 1.783,-4.237 c 1.218,-2.892 2.907,-5.423 5.03,-7.538 L 31.066,4.93 c 0.846,-0.842 2.65,-0.41 4.032,0.967 1.38,1.375 1.816,3.173 0.97,4.015 L 16.318,29.59 c -2.123,2.116 -4.664,3.8 -7.565,5.012"
       fill="#ffffff"
       id="path1-4"
       style="stroke-width:1.00012;stroke-dasharray:none" /><path
       d="m 29.41,6.11 c 0,0 -4.45,-2.378 -8.202,5.772 -1.734,3.766 -4.35,1.546 -4.35,1.546"
       id="path2"
       style="stroke-width:1.00012;stroke-dasharray:none" /><path
       d="m 36.42,8.825 c 0,0.463 -0.14,0.873 -0.432,1.164 l -9.335,9.3 c 0.282,-0.29 0.41,-0.668 0.41,-1.12 0,-0.874 -0.507,-1.963 -1.406,-2.868 -1.362,-1.358 -3.147,-1.8 -4.002,-0.99 L 30.99,5.01 c 0.844,-0.84 2.65,-0.41 4.035,0.96 0.898,0.904 1.396,1.982 1.396,2.855 M 10.515,33.774 c -0.573,0.302 -1.157,0.57 -1.764,0.83 L 4.5,36.382 6.286,32.147 c 0.258,-0.604 0.53,-1.186 0.833,-1.757 0.69,0.183 1.448,0.625 2.108,1.282 0.66,0.658 1.102,1.412 1.287,2.102"
       fill="#4c97ff"
       id="path3"
       style="stroke-width:1.00012;stroke-dasharray:none" /><path
       d="m 36.498,8.748 c 0,0.464 -0.14,0.874 -0.433,1.165 l -19.742,19.68 c -2.13,2.11 -4.673,3.793 -7.572,5.01 L 4.5,36.38 5.474,34.064 7.399,33.256 c 2.898,-1.218 5.44,-2.9 7.57,-5.01 L 34.712,8.566 c 0.292,-0.292 0.432,-0.702 0.432,-1.165 0,-0.646 -0.27,-1.4 -0.78,-2.122 0.25,0.172 0.5,0.377 0.737,0.614 0.898,0.905 1.396,1.983 1.396,2.856"
       fill="#575e75"
       opacity="0.15"
       id="path4"
       style="stroke-width:1.00012;stroke-dasharray:none" /><path
       d="m 18.45,12.83 c 0,0.5 -0.404,0.905 -0.904,0.905 -0.5,0 -0.905,-0.405 -0.905,-0.904 0,-0.5 0.407,-0.903 0.906,-0.903 0.5,0 0.904,0.404 0.904,0.904 z"
       fill="#575e75"
       id="path5"
       style="stroke-width:1.00012;stroke-dasharray:none" /></g></svg>
