<svg
   width="20"
   height="20"
   viewBox="0 0 20 20"
   version="1.1"
   id="svg1"
   xmlns="http://www.w3.org/2000/svg"
   xmlns:svg="http://www.w3.org/2000/svg">
  <defs
     id="defs1" />
  <path
     d="m 18.5,2.5 h 0.75 C 19.664214,2.5 20,2.8357864 20,3.25 20,3.6642136 19.664214,4 19.25,4 H 18.5 V 4.75 C 18.5,5.1642136 18.164214,5.5 17.75,5.5 17.335786,5.5 17,5.1642136 17,4.75 V 4 H 16.25 C 15.835786,4 15.5,3.6642136 15.5,3.25 15.5,2.8357864 15.835786,2.5 16.25,2.5 H 17 V 1.75 C 17,1.3357864 17.335786,1 17.75,1 18.164214,1 18.5,1.3357864 18.5,1.75 Z"
     id="Combined-Shape"
     style="fill:#ffffff;fill-opacity:1" />
  <g
     id="g20"
     transform="matrix(1.1028653,0,0,1.1028653,-177.26536,-53.710254)"
     style="display:inline;fill:#ffffff;fill-opacity:1;stroke-width:0.906729">
    <path
       d="m 170.27236,60.601186 c 0,0 -0.30658,0.0523 -0.37052,0.0523 -0.20357,0 -0.38746,0.109339 -0.51902,0.285305 -0.0311,0.04158 -0.25635,-0.0052 -0.25635,-0.0052 0,0 0.1297,0.23141 0.113,0.280403 -0.009,0.02874 -0.0204,0.07219 -0.0294,0.1116 l -0.20523,-0.0082 c -0.095,0.639253 -0.22555,1.041575 -0.46671,1.509878 -0.13057,0.25354 -0.43108,0.40898 -0.51878,0.680347 -0.0539,0.166555 -0.12963,0.424453 0.0138,0.524849 0.15909,0.111374 0.39106,-0.07716 0.55263,-0.184914 0.10342,-0.06899 0.22321,-0.202569 0.3243,-0.328265 0.11577,-0.167661 0.21526,-0.290208 0.21526,-0.290208 0,0 -0.0939,0.139292 -0.21526,0.290208 -0.15357,0.222369 -0.33669,0.526472 -0.36236,0.751321 -0.0226,0.197823 -0.0224,0.505961 0.16461,0.574114 0.1557,0.05672 0.31094,-0.146577 0.41207,-0.277835 0.11755,-0.152552 0.21293,-0.420073 0.28088,-0.657461 0.049,-0.258529 0.11487,-0.478157 0.11487,-0.478157 0,0 -0.0414,0.221458 -0.11487,0.478157 -0.0418,0.219945 -0.0716,0.467804 -0.0362,0.636452 0.0385,0.183035 0.10617,0.465685 0.29277,0.478621 0.17683,0.01228 0.27363,-0.245535 0.33737,-0.410914 0.066,-0.17128 0.0768,-0.449049 0.0724,-0.677545 -0.0188,-0.209744 -0.021,-0.379862 -0.021,-0.379862 0,0 0.017,0.169097 0.021,0.379862 0.0195,0.218764 0.057,0.48059 0.12911,0.640653 0.0732,0.162289 0.16615,0.410949 0.34414,0.40835 0.17397,-0.0023 0.2759,-0.241632 0.32477,-0.408582 0.15357,-0.524712 -0.16694,-1.631752 -0.16694,-1.631752 0,0 0.4883,0.747 0.79265,0.610534 0.20307,-0.09105 0.10236,-0.450057 0.0473,-0.665635 -0.10842,-0.42518 -0.7107,-1.10807 -0.7107,-1.10807 l -0.0296,-0.392704 -0.19566,-0.0077 c -0.0467,-0.260879 -0.1763,-0.48039 -0.35115,-0.607967 -0.0525,-0.03832 0.0168,-0.17207 0.0168,-0.172071 z"
       style="display:inline;fill:#ffffff;fill-opacity:1;stroke-width:0;stroke-linecap:round"
       id="path7" />
    <path
       id="path6"
       style="display:inline;fill:#ffffff;fill-opacity:1;stroke-width:0;stroke-linecap:round"
       d="m 175.05476,62.808345 c -0.14851,0.104683 -0.3021,0.201704 -0.46045,0.292208 0.15665,0.0839 0.31524,0.127419 0.41794,0.04959 0.0973,-0.07372 0.0881,-0.205252 0.0425,-0.341795 z m -0.70662,0.42503 c -0.23214,0.118047 -0.47368,0.220339 -0.72255,0.306375 0.0193,0.06014 0.0507,0.159404 0.0868,0.302833 0.0683,0.20871 0.16293,0.455354 0.26919,0.595041 0.10777,0.141668 0.25396,0.363134 0.4268,0.320543 0.16893,-0.04164 0.21489,-0.297409 0.22491,-0.471074 0.017,-0.294094 -0.13844,-0.721688 -0.28513,-1.053718 z m -0.63577,0.609208 c -0.0457,-0.13938 -0.0724,-0.23948 -0.0885,-0.301062 -0.18311,0.06322 -0.37049,0.11653 -0.56139,0.161157 -3.7e-4,0.07767 -0.002,0.165762 -0.007,0.263872 0.008,0.223725 0.0355,0.470539 0.10802,0.626918 0.0786,0.169687 0.20843,0.4314 0.39316,0.402007 0.17505,-0.02784 0.21242,-0.300901 0.23731,-0.476387 0.0257,-0.181637 -0.0258,-0.454933 -0.0815,-0.676505 z m -0.65702,0.123967 c -0.004,-0.09599 -0.004,-0.182944 -0.004,-0.26033 -0.19921,0.04616 -0.40273,0.07976 -0.6092,0.104486 -0.0852,0.232811 -0.16182,0.507009 -0.13991,0.699527 0.0226,0.197827 0.091,0.498132 0.28867,0.522432 0.16447,0.0202 0.27102,-0.212401 0.34002,-0.363046 0.0802,-0.175112 0.1112,-0.456468 0.12397,-0.703069 z m -0.62869,-0.154073 c -0.17067,0.01995 -0.34405,0.03441 -0.51889,0.03896 h -0.002 -0.002 c -0.0592,0.0013 -0.14345,0.0018 -0.14345,0.0018 h -0.13991 c -0.002,0.01098 -0.004,0.02248 -0.005,0.03365 -0.015,0.1744 -0.0313,0.442715 0.13105,0.508264 0.18008,0.07271 0.36448,-0.163253 0.49764,-0.304604 0.0629,-0.0667 0.12521,-0.170381 0.18241,-0.27804 z" />
    <path
       id="path20"
       style="display:inline;fill:#ffffff;fill-opacity:1;stroke-width:5.44039e-08;stroke-linecap:round;stroke-opacity:0.8"
       d="m 170.06066,52.315436 -0.49055,0.02302 0.38607,0.357732 0.50649,-0.214285 z m -3.33117,0.01771 -1.27862,0.318772 c 0,0 0.50279,0.248097 0.75619,0.414403 0.2534,0.166305 0.7562,0.586186 0.7562,0.586186 l 1.00059,-0.0425 c 0,0 -0.55154,-0.360157 -0.7562,-0.584415 -0.20465,-0.224258 -0.47816,-0.692443 -0.47816,-0.692443 z m -3.90141,0.102715 c 0.0682,1.776549 1.02538,4.538958 1.02538,4.538958 0,0 0.58948,-1.06922 1.68595,-0.598583 1.09648,0.470638 0.93153,1.322904 0.93153,1.322904 0,0 1.0524,0.459502 1.05548,0.956316 0.0105,1.67987 -1.45041,1.592088 -1.45041,1.592088 0,0 0.95576,0.457174 1.26624,0.750885 0.31048,0.293711 0.24052,0.677179 0.60035,0.885478 0.06,0.03473 0.14079,0.07546 0.21428,0.113341 0.073,-0.216607 0.12646,-0.452231 0.17533,-0.780991 l 0.0372,-0.244392 -0.12882,-0.751349 0.91335,0.02349 c 0.18833,-0.119358 0.41483,-0.197756 0.65348,-0.221369 l 1.14268,-0.379175 0.0439,1.071618 0.44097,0.01771 0.0584,0.788075 c 0.0667,0.07994 0.097,0.110225 0.20189,0.253247 0.18391,0.250864 0.39933,0.525419 0.5065,0.94569 0.0219,0.08587 0.0652,0.233041 0.085,0.425029 2.5464,-0.265266 4.53188,-2.416974 4.53188,-5.033055 0,-2.795304 -2.26728,-5.06139 -5.06316,-5.06139 -0.19955,0 -0.74203,0.05136 -0.74203,0.05136 0,0 0.85897,0.520621 0.21959,0.59327 -0.34596,0.03931 -2.15702,-0.01948 -2.15702,-0.01948 0,0 0.48349,1.21194 -0.70661,1.616882 -1.19008,0.404733 -1.08795,-0.854677 -2.32881,-1.00059 -1.24086,-0.145912 -3.21251,-1.855961 -3.21251,-1.855961 z m 8.72904,3.180636 c 0.43457,0.0013 0.78644,0.624966 0.7863,1.393741 -4.1e-4,0.768084 -0.35212,1.390707 -0.7863,1.391971 -0.43487,4.73e-4 -0.78767,-0.622659 -0.78808,-1.391971 -1.4e-4,-0.770004 0.35281,-1.394214 0.78808,-1.393741 z m 2.90791,0 c 0.43457,0.0013 0.78644,0.624966 0.7863,1.393741 -4.1e-4,0.768084 -0.35212,1.390707 -0.7863,1.391971 -0.43487,4.73e-4 -0.78767,-0.622659 -0.78808,-1.391971 -1.4e-4,-0.770004 0.35281,-1.394214 0.78808,-1.393741 z m -9.1098,1.586775 c 0,0 -0.48863,0.630689 -0.89256,0.825265 -0.40391,0.194575 -1.45749,0.223141 -1.45749,0.223141 0,0 0.67622,0.407789 0.93506,0.68713 0.25885,0.279341 0.73318,0.841204 0.73318,0.841204 0,0 0.37224,-0.396487 0.61806,-0.44451 0.24581,-0.04802 0.72078,0.173554 0.72078,0.173554 l 0.0992,-1.076741 c 0,0 -0.65933,0.05521 -0.82172,-0.106257 -0.16238,-0.161467 0.0655,-1.122786 0.0655,-1.122786 z m 9.15407,2.047225 c 0.0621,0.815954 -0.46692,1.063418 -0.77568,1.237897 -0.30875,0.174477 -1.34592,0.207202 -1.34592,0.207202 l -0.57202,0.451594 -0.0691,-0.747344 -0.28689,-0.308146 2.28453,-0.598583 -0.3843,-0.235537 z m -7.38488,2.927388 -0.47285,0.281582 0.42149,0.1098 0.48347,-0.09209 z" />
  </g>
</svg>
