<?xml version="1.0" encoding="UTF-8" standalone="no"?>
<svg
   viewBox="0 0 60 60"
   fill="#ff884c"
   version="1.1"
   id="svg1"
   width="60"
   height="60"
   sodipodi:docname="fire-reaction-on.svg"
   inkscape:version="1.4 (86a8ad7, 2024-10-11)"
   xmlns:inkscape="http://www.inkscape.org/namespaces/inkscape"
   xmlns:sodipodi="http://sodipodi.sourceforge.net/DTD/sodipodi-0.dtd"
   xmlns="http://www.w3.org/2000/svg"
   xmlns:svg="http://www.w3.org/2000/svg">
  <sodipodi:namedview
     id="namedview1"
     pagecolor="#ffffff"
     bordercolor="#000000"
     borderopacity="0.25"
     inkscape:showpageshadow="2"
     inkscape:pageopacity="0.0"
     inkscape:pagecheckerboard="0"
     inkscape:deskcolor="#d1d1d1"
     inkscape:zoom="0.6097"
     inkscape:cx="16.401509"
     inkscape:cy="33.623093"
     inkscape:current-layer="svg1" />
  <defs
     id="defs1" />
  <path
     id="path1"
     style="fill:#ff8f4d;stroke:#ff8f4d;stroke-width:2.00001"
     d="m 48.328551,39.291104 c -0.719145,2.907954 -5.476094,5.646689 -4.444424,7.913807 1.031671,2.26712 4.876428,-0.242217 4.876428,-0.242217 -1.020805,2.35794 -2.497932,4.481397 -4.323221,6.2647 -3.650578,3.566608 -8.693805,5.772601 -14.264399,5.772601 -11.141188,0 -20.172908,-8.823971 -20.172908,-19.708891 0,0 5.049947,3.029176 6.852014,-0.0203 0.450516,-0.762368 4.986174,0.763634 4.986174,0.763634 0,0 -2.080977,-6.671008 -5.935117,-7.703722 -3.85414,-1.032714 -2.300492,-4.652984 -2.300492,-4.652984 6.108572,1.599139 3.330025,-9.942714 3.330025,-9.942714 l 4.215838,3.592949 c 0,0 -0.04422,-3.850656 0.811938,-5.8276 0.856156,-1.976946 0.669432,-1.589431 3.32065,-3.858274 2.651219,-2.2688432 4.891878,-9.7978819 4.891878,-9.7978819 0,0 8.212528,7.7701136 8.212528,11.6852659 0,3.915154 4.532227,6.304295 4.532227,6.304295 0,0 -5.484624,-1.066441 -6.992125,1.908397 -1.507504,2.974841 3.909967,6.808304 3.909967,6.808304 0,0 -2.955003,6.758933 1.521458,7.930808 4.476458,1.171873 7.403565,-4.86177 7.403565,-4.86177 1.124845,2.676058 0.287141,4.763635 -0.432004,7.671589 z"
     sodipodi:nodetypes="zzsssssczscczsczczczszz" />
  <path
     id="path2"
     style="fill:#ffca4d;stroke-width:0;fill-opacity:1"
     d="m 40,50 c 0,2.761423 -1.119288,5.261423 -2.928932,7.071068 C 35.261423,58.880712 32.761423,60 30,60 c -2.761424,0 -5.261424,-1.119288 -7.071068,-2.928932 0,0 1.607359,0.03888 1.10133,-1.157508 -0.253014,-0.598192 -0.98837,-1.545436 -1.723445,-2.608705 0,0 1.978599,-0.270982 0.957926,-2.376304 C 22.24407,48.823229 20.585058,50 20.585058,50 c -0.503779,-2.124583 0.200791,-5.892451 0.200791,-5.892451 0,0 1.768927,1.214461 2.781328,0.821383 1.012402,-0.393078 1.71598,-1.72485 1.868298,-3.096089 0.152318,-1.371239 -1.963069,-3.071001 -1.473959,-4.422772 0.48911,-1.351771 2.128439,-1.398088 3.181567,-2.624222 C 28.19621,33.559716 30,30 30,30 c 0,0 1.315356,2.779822 2.856917,5.785849 0.770781,1.503014 3.250034,-0.8427 3.250034,-0.8427 l -1.235505,5.424334 c 0.75551,0.909773 3.71684,0.998152 3.71684,0.998152 0,0 -3.171536,2.697934 -1.517218,5.563297 1.654318,2.865363 -0.498699,4.106946 -0.498699,4.106946 C 37.292324,51.756152 40,50 40,50 Z"
     sodipodi:nodetypes="sssssszsczzczccccczcs" />
</svg>
