<svg
   width="24"
   height="24"
   style="-ms-transform:rotate(360deg);-webkit-transform:rotate(360deg)"
   version="1.1"
   id="svg2"
   xmlns="http://www.w3.org/2000/svg"
   xmlns:svg="http://www.w3.org/2000/svg">
  <defs
     id="defs2" />
  <path
     d="m 21.604341,13.073389 c -1.694867,0 -1.920867,0.903957 -1.920867,1.694959 0,0.677965 0.11299,1.242957 0.11299,1.920868 0,0.67791 0.112992,1.355913 0.112992,1.920869 0,2.372869 -1.468959,3.389825 -3.841828,3.389825 h -0.903956 v -2.146869 h 0.451973 c 1.129912,0 1.468958,-0.677965 1.468958,-1.807912 0,-0.451975 -0.112991,-0.903956 -0.112991,-1.468957 0,-0.451976 -0.112993,-1.016958 -0.112993,-1.69496 0,-1.920868 0.790957,-2.598869 2.146871,-2.937825 -1.355914,-0.338983 -2.146871,-1.016956 -2.146871,-2.9378245 0,-0.6779664 0.112993,-1.2429598 0.112993,-1.6948692 0,-0.4519741 0.112991,-1.0169569 0.112991,-1.3559121 0,-1.129912 -0.338983,-1.8079131 -1.468958,-1.8079131 h -0.451973 v -2.146868 h 0.903956 c 2.259915,0 3.728781,0.9039559 3.728781,3.3898251 0,0.6779655 0,1.2429586 -0.112991,1.9208691 -0.112991,0.6779103 -0.112991,1.3559121 -0.112991,1.920869 0,0.6779645 0.225991,1.6949567 1.920867,1.6949567 z M 2.395659,11.152521 c 1.6948674,0 1.9208682,-1.016956 1.9208682,-1.694868 0,-0.6779646 -0.1129904,-1.242957 -0.1129904,-1.9208672 C 4.0905453,6.8588202 4.0905453,6.1808727 4.0905453,5.6159174 c 0,-2.4859147 1.5819122,-3.3898268 3.841827,-3.3898268 H 8.8363292 V 4.1469588 H 8.384355 c -1.1299121,0 -1.4689577,0.6779654 -1.4689577,1.8079131 0,0.451974 0,0.9039569 0.1129913,1.355913 0,0.5649741 0.1129906,1.129912 0.1129906,1.6948682 0,1.9208669 -0.7909561,2.5988689 -2.1468692,2.9378239 1.3559131,0.338984 2.1468692,1.016957 2.1468692,2.937825 0,0.677966 -0.1129906,1.242958 -0.1129906,1.694959 -0.1129913,0.564973 -0.1129913,1.016956 -0.1129913,1.468959 0,1.129911 0.4519741,1.694958 1.4689577,1.80791 H 8.8363292 V 22 H 7.9323723 c -2.3728691,0 -3.841827,-1.016956 -3.841827,-3.389825 0,-0.677965 0.1129915,-1.242958 0.1129915,-1.920868 0.1129904,-0.677967 0.1129904,-1.355913 0.1129904,-1.920869 0,-0.790955 -0.2259914,-1.694957 -1.9208682,-1.694957 z"
     id="path10"
     style="fill:#ffffff;fill-opacity:1;stroke-width:1" />
</svg>
